Patient4_TMGait_0pt2_03_left_01_GRF.mot
version=1
nRows=52
nColumns=19
inDegrees=no
endheader
time	F1x	F1y	F1z	M1x	M1y	M1z	F2x	F2y	F2z	M2x	M2y	M2z	EC1x	EC1y	EC1z	EC2x	EC2y	EC2z
0.72	-2.3629	3.6247	-0.030571	-1.3658	-0.93922	4.2216	9.3593	712.4173	-59.7694	250.4611	54.1323	750.9934	-0.0592	0.0182	-0.0073	-0.0462	0.0165	0.9585
0.74214	-1.6687	2.9999	0.068362	-1.1154	-0.76276	3.3964	9.3762	731.7679	-58.2669	257.2658	52.8129	770.1241	-0.0592	0.0182	-0.0073	-0.0462	0.0165	0.9585
0.76429	-1.0767	2.5051	0.15945	-0.91226	-0.61505	2.7211	8.8854	755.8355	-56.4626	266.0394	51.2616	793.7517	-0.0592	0.0182	-0.0073	-0.0462	0.0165	0.9585
0.78643	-0.62773	2.1661	0.23563	-0.76736	-0.50797	2.2287	7.7873	783.5913	-54.44	276.4686	49.616	820.7579	-0.0592	0.0182	-0.0073	-0.0462	0.0165	0.9585
0.80857	-0.32609	1.9607	0.29641	-0.67412	-0.44456	1.9012	6.1172	813.1311	-52.2677	287.8753	47.9757	849.1326	-0.0592	0.0182	-0.0073	-0.0462	0.0165	0.9585
0.83071	-0.15391	1.8333	0.34572	-0.61434	-0.42132	1.6839	4.0104	841.7177	-49.9946	299.2379	46.383	876.0326	-0.0592	0.0182	-0.0073	-0.0462	0.0165	0.9585
0.85286	-0.085444	1.7141	0.38805	-0.56189	-0.43174	1.4996	1.69	866.1552	-47.6451	309.3256	44.809	898.1731	-0.0592	0.0182	-0.0073	-0.0462	0.0165	0.9585
0.875	-0.093626	1.5174	0.42403	-0.48513	-0.46837	1.2594	-0.5506	883.3071	-45.2482	316.8906	43.1857	912.3644	-0.0592	0.0182	-0.0073	-0.0462	0.0165	0.9585
0.89714	-0.1549	1.1401	0.45093	-0.34972	-0.51953	0.86775	-2.4053	890.6079	-42.8709	320.8733	41.4642	916.0391	-0.0592	0.0182	-0.0073	-0.0462	0.0165	0.9585
0.91929	-0.24902	0.48824	0.46478	-0.12282	-0.57012	0.21665	-3.5899	886.579	-40.621	320.6163	39.6383	907.7573	-0.0592	0.0182	-0.0073	-0.0462	0.0165	0.9585
0.94143	-0.35201	-0.50681	0.46005	0.22256	-0.60228	-0.78848	-3.8677	871.1769	-38.616	316.0176	37.7304	887.5507	-0.0592	0.0182	-0.0073	-0.0462	0.0165	0.9585
0.96357	-0.43618	-1.8778	0.4289	0.69887	-0.59614	-2.1964	-3.0816	845.923	-36.9458	307.5915	35.769	857.0465	-0.0592	0.0182	-0.0073	-0.0462	0.0165	0.9585
0.98571	-0.47	-3.5888	0.3579	1.2921	-0.52637	-3.9769	-1.1875	813.7442	-35.6528	296.4084	33.7765	819.2977	-0.0592	0.0182	-0.0073	-0.0462	0.0165	0.9585
1.0079	-0.41591	-5.4809	0.23206	1.9445	-0.36248	-5.9658	1.7394	778.519	-34.7406	283.9178	31.7793	778.3068	-0.0592	0.0182	-0.0073	-0.0462	0.0165	0.9585
1.03	-0.22784	-7.21	0.032225	2.5347	-0.069002	-7.8008	5.5158	744.427	-34.1967	271.6949	29.8247	738.3656	-0.0592	0.0182	-0.0073	-0.0462	0.0165	0.9585
1.0521	0.14612	-8.1793	-0.26022	2.8532	0.3908	-8.8438	9.8439	715.2236	-33.9983	261.1594	27.9912	703.3399	-0.0592	0.0182	-0.0073	-0.0462	0.0165	0.9585
1.0743	0.75439	-7.4756	-0.65436	2.5802	1.0451	-8.1193	14.3223	693.5133	-34.1203	253.3012	26.3929	675.965	-0.0592	0.0182	-0.0073	-0.0462	0.0165	0.9585
1.0964	1.6277	-3.8408	-1.1356	1.2763	1.8913	-4.2909	18.4983	680.2095	-34.5309	248.4804	25.156	657.3223	-0.0592	0.0182	-0.0073	-0.0462	0.0165	0.9585
1.1186	2.7639	4.2924	-1.6528	-1.6042	2.8741	4.3067	21.9368	674.3783	-35.1713	246.3691	24.3781	646.6928	-0.0592	0.0182	-0.0073	-0.0462	0.0165	0.9585
1.1407	4.098	18.6604	-2.0987	-6.6648	3.8528	19.525	24.2627	673.4636	-35.9486	246.036	24.1113	641.7758	-0.0592	0.0182	-0.0073	-0.0462	0.0165	0.9585
1.1629	5.4598	40.8555	-2.2916	-14.455	4.569	43.069	25.1893	673.7996	-36.7193	246.14	24.3375	639.1761	-0.0592	0.0182	-0.0073	-0.0462	0.0165	0.9585
1.185	6.5204	71.7814	-1.962	-25.2785	4.612	75.9182	24.5626	671.3289	-37.2788	245.1977	24.9399	635.0584	-0.0592	0.0182	-0.0073	-0.0462	0.0165	0.9585
1.2071	6.7467	110.8424	-0.74969	-38.9065	3.3951	117.4676	22.4366	662.4036	-37.3871	241.8824	25.6933	625.8858	-0.0592	0.0182	-0.0073	-0.0462	0.0165	0.9585
1.2293	5.6258	155.2291	1.7509	-54.3283	0.2894	164.7624	19.1323	644.5194	-36.8604	235.2904	26.3267	609.1125	-0.0592	0.0182	-0.0073	-0.0462	0.0165	0.9585
1.2514	3.3953	200.4989	5.702	-69.9785	-4.8003	213.0309	15.1888	616.9794	-35.6408	225.1801	26.6088	583.8282	-0.0592	0.0182	-0.0073	-0.0462	0.0165	0.9585
1.2736	0.74127	243.2069	10.4826	-84.6919	-10.944	258.4622	11.2371	581.2718	-33.8034	212.1025	26.3968	551.1524	-0.0592	0.0182	-0.0073	-0.0462	0.0165	0.9585
1.2957	-1.7591	282.4078	15.259	-98.193	-17.022	299.9412	7.7874	540.5446	-31.5049	197.2115	25.6558	513.801	-0.0592	0.0182	-0.0073	-0.0462	0.0165	0.9585
1.3179	-3.7924	318.3251	19.427	-110.5963	-22.2687	337.6771	5.0488	498.4029	-28.9273	181.8268	24.4725	475.01	-0.0592	0.0182	-0.0073	-0.0462	0.0165	0.9585
1.34	-5.1955	351.2118	22.6811	-121.9947	-26.3049	371.9417	2.9581	457.951	-26.2879	167.0772	23.052	437.6381	-0.0592	0.0182	-0.0073	-0.0462	0.0165	0.9585
1.3621	-5.8819	381.0202	25.0152	-132.3454	-29.1031	402.7133	1.3392	421.3808	-23.8201	153.7509	21.6467	403.7407	-0.0592	0.0182	-0.0073	-0.0462	0.0165	0.9585
1.3843	-5.8887	407.4337	26.5905	-141.4997	-30.8579	429.7184	0.03043	389.9004	-21.7135	142.2766	20.4676	374.4713	-0.0592	0.0182	-0.0073	-0.0462	0.0165	0.9585
1.4064	-5.3768	430.1261	27.5821	-149.3119	-31.82	452.696	-1.0608	363.8026	-20.085	132.7525	19.6404	350.1234	-0.0592	0.0182	-0.0073	-0.0462	0.0165	0.9585
1.4286	-4.5205	449.0794	28.0781	-155.7593	-32.1526	471.6989	-1.9454	342.55	-18.9717	124.9783	19.1904	330.194	-0.0592	0.0182	-0.0073	-0.0462	0.0165	0.9585
1.4507	-3.4475	464.6188	28.116	-160.9533	-31.9425	487.1089	-2.5835	324.9093	-18.3122	118.5058	19.0328	313.5142	-0.0592	0.0182	-0.0073	-0.0462	0.0165	0.9585
1.4729	-2.2401	477.3263	27.7924	-165.1011	-31.3144	499.5372	-2.9236	309.2371	-17.9538	112.7408	18.9991	298.538	-0.0592	0.0182	-0.0073	-0.0462	0.0165	0.9585
1.495	-0.93881	488.0083	27.2915	-168.4931	-30.4619	509.7987	-2.922	293.8724	-17.7141	107.0824	18.9018	283.7134	-0.0592	0.0182	-0.0073	-0.0462	0.0165	0.9585
1.5171	0.46626	497.5916	26.823	-171.4656	-29.5825	518.8069	-2.5714	277.4733	-17.4431	101.0433	18.5997	267.7953	-0.0592	0.0182	-0.0073	-0.0462	0.0165	0.9585
1.5393	1.9961	506.9989	26.5495	-174.3579	-28.8204	527.4607	-1.9196	259.1989	-17.0385	94.3184	18.017	250.0187	-0.0592	0.0182	-0.0073	-0.0462	0.0165	0.9585
1.5614	3.6228	517.1055	26.5567	-177.4921	-28.2589	536.6321	-1.0821	238.7275	-16.4304	86.7933	17.1353	230.1183	-0.0592	0.0182	-0.0073	-0.0462	0.0165	0.9585
1.5836	5.2407	528.6813	26.8762	-181.1431	-27.9559	547.1334	-0.23253	216.1559	-15.572	78.5083	15.9833	208.2282	-0.0592	0.0182	-0.0073	-0.0462	0.0165	0.9585
1.6057	6.6844	542.3388	27.5294	-185.5131	-27.9864	559.6594	0.43528	191.8594	-14.4495	69.6078	14.6249	184.736	-0.0592	0.0182	-0.0073	-0.0462	0.0165	0.9585
1.6279	7.7617	558.5244	28.5481	-190.7315	-28.4506	574.7628	0.75025	166.3906	-13.0946	60.2993	13.1538	160.1863	-0.0592	0.0182	-0.0073	-0.0462	0.0165	0.9585
1.65	8.2688	577.5439	29.9609	-196.8701	-29.4546	592.8743	0.59788	140.4554	-11.5826	50.8431	11.6852	135.2541	-0.0592	0.0182	-0.0073	-0.0462	0.0165	0.9585
1.6721	8.007	599.6017	31.7692	-203.9599	-31.0806	614.3202	-0.03002	114.9236	-10.01	41.5548	10.3165	110.7578	-0.0592	0.0182	-0.0073	-0.0462	0.0165	0.9585
1.6943	6.812	624.8182	33.9348	-212.0054	-33.3609	639.3127	-1.0084	90.7691	-8.4699	32.7846	9.0943	87.6028	-0.0592	0.0182	-0.0073	-0.0462	0.0165	0.9585
1.7164	4.5879	653.2731	36.3745	-221.007	-36.2558	667.9718	-2.1149	68.8895	-7.033	24.8532	8.0084	66.6148	-0.0592	0.0182	-0.0073	-0.0462	0.0165	0.9585
1.7386	1.3595	684.9589	38.9738	-230.9514	-39.6427	700.2563	-3.1159	49.8942	-5.7258	17.9776	7.0057	48.355	-0.0592	0.0182	-0.0073	-0.0462	0.0165	0.9585
1.7607	-2.6868	719.5846	41.6185	-241.7503	-43.33	735.7527	-3.8317	34.049	-4.54	12.2535	6.0218	33.0746	-0.0592	0.0182	-0.0073	-0.0462	0.0165	0.9585
1.7829	-7.2264	756.4063	44.213	-253.1886	-47.0873	773.5077	-4.142	21.3489	-3.4674	7.6779	5.0131	20.7823	-0.0592	0.0182	-0.0073	-0.0462	0.0165	0.9585
1.805	-11.8563	794.1485	46.6598	-264.8958	-50.6488	811.9766	-3.993	11.6157	-2.5156	4.1815	3.9742	11.3241	-0.0592	0.0182	-0.0073	-0.0462	0.0165	0.9585
1.8271	-16.1427	830.9553	48.8523	-276.325	-53.7331	849.0211	-3.4264	4.5683	-1.709	1.6567	2.946	4.447	-0.0592	0.0182	-0.0073	-0.0462	0.0165	0.9585
1.8493	-19.6813	864.499	50.6674	-286.7806	-56.0635	882.0556	-2.6187	-0.14075	-1.0775	-0.026331	2.017	-0.16735	-0.0592	0.0182	-0.0073	-0.0462	0.0165	0.9585
